<?xml version="1.0" encoding="utf-8"?>
<!-- Generator: Adobe Illustrator 19.2.0, SVG Export Plug-In . SVG Version: 6.00 Build 0)  -->
<svg version="1.1" id="Laag_1" xmlns="http://www.w3.org/2000/svg" xmlns:xlink="http://www.w3.org/1999/xlink" x="0px" y="0px"
	 viewBox="0 0 125 190" xml:space="preserve">
<style type="text/css">
	.st0{fill:#93D064;}
</style>
<g style="background-color: #000">
	<g>
		<path class="st0" d="M62.4,176c-0.3,0-0.6-0.2-0.7-0.5c-0.2-0.6-0.1-0.7,1.4-1.9c16.2-13.6,43.5-42,43.8-79.2
			c0.2-27.8-14.9-55.1-45-81.2c-0.3-0.3-0.4-0.8-0.1-1.1c0.3-0.3,0.8-0.4,1.1-0.1c30.4,26.4,45.7,54.1,45.5,82.4
			c-0.3,37.8-27.9,66.6-44.4,80.4c-0.5,0.4-0.8,0.7-1,0.8C62.9,175.8,62.7,176,62.4,176z"/>
	</g>
	<g>
		<path class="st0" d="M62.4,176c-0.3,0-0.5-0.1-0.7-0.4c-0.2-0.1-0.5-0.4-1-0.8C44.3,161,16.7,132.2,16.4,94.3
			C16.1,66,31.4,38.3,61.9,12c0.3-0.3,0.8-0.2,1.1,0.1c0.3,0.3,0.2,0.8-0.1,1.1c-30.1,26-45.2,53.4-45,81.2
			c0.3,37.2,27.6,65.6,43.8,79.2c1.5,1.2,1.6,1.3,1.4,1.9C63,175.8,62.7,176,62.4,176z"/>
	</g>
	<g>
		<rect x="61.6" y="12.6" class="st0" width="1.6" height="162.6"/>
	</g>
	<g>
		<rect x="54.4" y="23.7" transform="matrix(0.7554 -0.6553 0.6553 0.7554 -9.2088 44.6296)" class="st0" width="1.6" height="22"/>
	</g>
	<g>
		<rect x="48.2" y="36.8" transform="matrix(0.797 -0.604 0.604 0.797 -25.633 41.5541)" class="st0" width="1.6" height="44.3"/>
	</g>
	<g>
		
			<rect x="42.9" y="53.3" transform="matrix(0.7995 -0.6007 0.6007 0.7995 -42.0287 43.1583)" class="st0" width="1.6" height="62.4"/>
	</g>
	<g>
		
			<rect x="39.2" y="78.8" transform="matrix(0.7943 -0.6076 0.6076 0.7943 -62.0798 48.0698)" class="st0" width="1.6" height="73.9"/>
	</g>
	<g>
		<rect x="58.8" y="33.9" transform="matrix(0.6555 -0.7552 0.7552 0.6555 -2.1322 64.6234)" class="st0" width="22" height="1.6"/>
	</g>
	<g>
		
			<rect x="53.8" y="58.1" transform="matrix(0.6037 -0.7972 0.7972 0.6037 -16.87 83.8804)" class="st0" width="44.3" height="1.6"/>
	</g>
	<g>
		
			<rect x="50.1" y="83.8" transform="matrix(0.6005 -0.7996 0.7996 0.6005 -35.1135 98.7913)" class="st0" width="62.4" height="1.6"/>
	</g>
	<g>
		
			<rect x="48.1" y="114.9" transform="matrix(0.6076 -0.7942 0.7942 0.6076 -58.542 112.9068)" class="st0" width="73.9" height="1.6"/>
	</g>
</g>
</svg>
