<?xml version="1.0" encoding="utf-8"?>
<!-- Generator: Adobe Illustrator 19.2.0, SVG Export Plug-In . SVG Version: 6.00 Build 0)  -->
<svg version="1.1" id="Laag_1" xmlns="http://www.w3.org/2000/svg" xmlns:xlink="http://www.w3.org/1999/xlink" x="0px" y="0px"
	 viewBox="0 0 529 187" style="enable-background:new 0 0 529 187;" xml:space="preserve">
<style type="text/css">
	.st0{fill:#93D064;}
	.st1{fill:#FFFFFF;}
</style>
<g>
	<g>
		<path class="st0" d="M62.4,176c-0.3,0-0.6-0.2-0.7-0.5c-0.2-0.6-0.1-0.7,1.4-1.9c16.2-13.6,43.5-42,43.8-79.2
			c0.2-27.8-14.9-55.1-45-81.2c-0.3-0.3-0.4-0.8-0.1-1.1c0.3-0.3,0.8-0.4,1.1-0.1c30.4,26.4,45.7,54.1,45.5,82.4
			c-0.3,37.8-27.9,66.6-44.4,80.4c-0.5,0.4-0.8,0.7-1,0.8C62.9,175.8,62.7,176,62.4,176z"/>
	</g>
	<g>
		<path class="st0" d="M62.4,176c-0.3,0-0.5-0.1-0.7-0.4c-0.2-0.1-0.5-0.4-1-0.8C44.3,161,16.7,132.2,16.4,94.3
			C16.1,66,31.4,38.3,61.9,12c0.3-0.3,0.8-0.2,1.1,0.1c0.3,0.3,0.2,0.8-0.1,1.1c-30.1,26-45.2,53.4-45,81.2
			c0.3,37.2,27.6,65.6,43.8,79.2c1.5,1.2,1.6,1.3,1.4,1.9C63,175.8,62.7,176,62.4,176z"/>
	</g>
	<g>
		<rect x="61.6" y="12.6" class="st0" width="1.6" height="162.6"/>
	</g>
	<g>
		<rect x="54.4" y="23.7" transform="matrix(0.7554 -0.6553 0.6553 0.7554 -9.2088 44.6296)" class="st0" width="1.6" height="22"/>
	</g>
	<g>
		<rect x="48.2" y="36.8" transform="matrix(0.797 -0.604 0.604 0.797 -25.633 41.5541)" class="st0" width="1.6" height="44.3"/>
	</g>
	<g>
		
			<rect x="42.9" y="53.3" transform="matrix(0.7995 -0.6007 0.6007 0.7995 -42.0287 43.1583)" class="st0" width="1.6" height="62.4"/>
	</g>
	<g>
		
			<rect x="39.2" y="78.8" transform="matrix(0.7943 -0.6076 0.6076 0.7943 -62.0798 48.0698)" class="st0" width="1.6" height="73.9"/>
	</g>
	<g>
		<rect x="58.8" y="33.9" transform="matrix(0.6555 -0.7552 0.7552 0.6555 -2.1322 64.6234)" class="st0" width="22" height="1.6"/>
	</g>
	<g>
		
			<rect x="53.8" y="58.1" transform="matrix(0.6037 -0.7972 0.7972 0.6037 -16.87 83.8804)" class="st0" width="44.3" height="1.6"/>
	</g>
	<g>
		
			<rect x="50.1" y="83.8" transform="matrix(0.6005 -0.7996 0.7996 0.6005 -35.1135 98.7913)" class="st0" width="62.4" height="1.6"/>
	</g>
	<g>
		
			<rect x="48.1" y="114.9" transform="matrix(0.6076 -0.7942 0.7942 0.6076 -58.542 112.9068)" class="st0" width="73.9" height="1.6"/>
	</g>
</g>
<g>
	<path class="st1" d="M122.5,49.4h5.7v34.2c0,4.1,0.1,6.6,0.2,7.6c0.3,2.2,0.9,4.1,2,5.6c1,1.5,2.6,2.8,4.7,3.8
		c2.1,1,4.3,1.5,6.4,1.5c1.9,0,3.7-0.4,5.4-1.2c1.7-0.8,3.2-1.9,4.3-3.3c1.2-1.4,2-3.1,2.5-5.1c0.4-1.4,0.6-4.4,0.6-8.9V49.4h5.7
		v34.2c0,5.1-0.5,9.2-1.5,12.3c-1,3.1-3,5.8-5.9,8.2c-3,2.3-6.6,3.5-10.8,3.5c-4.6,0-8.5-1.1-11.8-3.3c-3.3-2.2-5.4-5.1-6.6-8.7
		c-0.7-2.2-1-6.2-1-12V49.4z"/>
	<path class="st1" d="M167.2,64.1h5.4v7.5c2.2-2.9,4.5-5,7.2-6.5s5.5-2.1,8.6-2.1c3.1,0,5.9,0.8,8.3,2.4c2.4,1.6,4.2,3.7,5.4,6.4
		c1.2,2.7,1.7,6.9,1.7,12.6v21.6h-5.4v-20c0-4.8-0.2-8.1-0.6-9.7c-0.6-2.8-1.8-4.9-3.6-6.3c-1.8-1.4-4.1-2.1-6.9-2.1
		c-3.3,0-6.2,1.1-8.8,3.2c-2.6,2.2-4.3,4.8-5.1,8c-0.5,2.1-0.8,5.9-0.8,11.4v15.4h-5.4V64.1z"/>
	<path class="st1" d="M211.3,46.9c1.2,0,2.3,0.4,3.1,1.3c0.9,0.9,1.3,1.9,1.3,3.2c0,1.2-0.4,2.2-1.3,3.1c-0.9,0.9-1.9,1.3-3.1,1.3
		c-1.2,0-2.2-0.4-3.1-1.3c-0.9-0.9-1.3-1.9-1.3-3.1c0-1.2,0.4-2.3,1.3-3.2C209.1,47.3,210.1,46.9,211.3,46.9z M208.6,64.1h5.4v41.9
		h-5.4V64.1z"/>
	<path class="st1" d="M254.6,92.2l4.5,2.4c-1.5,2.9-3.2,5.3-5.2,7.1c-2,1.8-4.2,3.2-6.6,4.1c-2.4,0.9-5.2,1.4-8.3,1.4
		c-6.8,0-12.2-2.2-16.1-6.7c-3.9-4.5-5.8-9.6-5.8-15.2c0-5.3,1.6-10.1,4.9-14.2c4.1-5.3,9.7-7.9,16.6-7.9c7.2,0,12.9,2.7,17.1,8.1
		c3,3.8,4.6,8.6,4.6,14.3h-37.7c0.1,4.9,1.7,8.9,4.7,12c3,3.1,6.7,4.7,11.2,4.7c2.1,0,4.2-0.4,6.2-1.1c2-0.7,3.7-1.7,5.2-3
		C251.4,96.9,253,94.9,254.6,92.2z M254.6,80.9c-0.7-2.9-1.8-5.2-3.1-6.9c-1.4-1.7-3.2-3.1-5.5-4.2c-2.3-1.1-4.6-1.6-7.1-1.6
		c-4.1,0-7.7,1.3-10.6,4c-2.2,1.9-3.8,4.8-4.9,8.7H254.6z"/>
	<path class="st1" d="M264.7,47.9h5.4v33.1l19.4-16.9h7.9l-23.1,20l24.4,21.9h-7.6l-21.1-18.9v18.9h-5.4V47.9z"/>
	<path class="st0" d="M354,58.9l-4.4,4.2c-3.2-3.1-6.6-5.5-10.4-7.1c-3.8-1.6-7.4-2.4-11-2.4c-4.4,0-8.7,1.1-12.7,3.3
		s-7.1,5.1-9.3,8.9c-2.2,3.7-3.3,7.7-3.3,11.9c0,4.3,1.1,8.3,3.4,12.2c2.3,3.8,5.4,6.9,9.5,9.1c4,2.2,8.5,3.3,13.3,3.3
		c5.8,0,10.8-1.6,14.8-4.9c4-3.3,6.4-7.6,7.2-12.8h-18.1v-5.5h24.4c-0.1,8.8-2.7,15.7-7.8,20.9c-5.2,5.2-12,7.7-20.7,7.7
		c-10.5,0-18.8-3.6-24.9-10.7c-4.7-5.5-7.1-11.9-7.1-19.1c0-5.4,1.3-10.4,4-15c2.7-4.6,6.4-8.2,11.1-10.9c4.7-2.6,10-3.9,16-3.9
		c4.8,0,9.3,0.9,13.6,2.6C345.8,52.3,350,55.1,354,58.9z"/>
	<path class="st0" d="M359.3,64.1h5.5v6.1c1.6-2.4,3.4-4.2,5.2-5.4s3.7-1.8,5.7-1.8c1.5,0,3.1,0.5,4.8,1.4l-2.8,4.5
		c-1.1-0.5-2.1-0.7-2.9-0.7c-1.8,0-3.5,0.7-5.2,2.2c-1.7,1.5-2.9,3.8-3.8,6.9c-0.7,2.4-1,7.2-1,14.5v14.2h-5.5V64.1z"/>
	<path class="st0" d="M398.7,63.1c6.5,0,11.8,2.3,16.1,7c3.9,4.3,5.8,9.3,5.8,15.2c0,5.9-2,11-6.1,15.4c-4.1,4.4-9.3,6.6-15.7,6.6
		c-6.4,0-11.7-2.2-15.8-6.6c-4.1-4.4-6.1-9.5-6.1-15.4c0-5.8,1.9-10.8,5.8-15.1C386.9,65.4,392.2,63.1,398.7,63.1z M398.7,68.3
		c-4.5,0-8.3,1.7-11.6,5c-3.2,3.3-4.8,7.3-4.8,12c0,3,0.7,5.9,2.2,8.5c1.5,2.6,3.5,4.6,6,6.1c2.5,1.4,5.2,2.1,8.2,2.1
		c3,0,5.7-0.7,8.2-2.1c2.5-1.4,4.5-3.5,6-6.1c1.5-2.6,2.2-5.4,2.2-8.5c0-4.7-1.6-8.7-4.9-12C407,70,403.2,68.3,398.7,68.3z"/>
	<path class="st0" d="M460,92.2l4.5,2.4c-1.5,2.9-3.2,5.3-5.2,7.1c-2,1.8-4.2,3.2-6.6,4.1c-2.4,0.9-5.2,1.4-8.3,1.4
		c-6.8,0-12.2-2.2-16.1-6.7s-5.8-9.6-5.8-15.2c0-5.3,1.6-10.1,4.9-14.2c4.1-5.3,9.7-7.9,16.6-7.9c7.2,0,12.9,2.7,17.1,8.1
		c3,3.8,4.6,8.6,4.6,14.3h-37.7c0.1,4.9,1.7,8.9,4.7,12c3,3.1,6.7,4.7,11.2,4.7c2.1,0,4.2-0.4,6.2-1.1c2-0.7,3.7-1.7,5.2-3
		C456.8,96.9,458.3,94.9,460,92.2z M460,80.9c-0.7-2.9-1.8-5.2-3.1-6.9c-1.4-1.7-3.2-3.1-5.5-4.2c-2.3-1.1-4.6-1.6-7.1-1.6
		c-4.1,0-7.7,1.3-10.6,4c-2.2,1.9-3.8,4.8-4.9,8.7H460z"/>
	<path class="st0" d="M470,64.1h5.4v7.5c2.2-2.9,4.5-5,7.2-6.5c2.6-1.4,5.5-2.1,8.6-2.1c3.1,0,5.9,0.8,8.3,2.4
		c2.4,1.6,4.2,3.7,5.4,6.4c1.2,2.7,1.7,6.9,1.7,12.6v21.6h-5.4v-20c0-4.8-0.2-8.1-0.6-9.7c-0.6-2.8-1.8-4.9-3.6-6.3
		c-1.8-1.4-4.1-2.1-6.9-2.1c-3.3,0-6.2,1.1-8.8,3.2c-2.6,2.2-4.3,4.8-5.1,8c-0.5,2.1-0.8,5.9-0.8,11.4v15.4H470V64.1z"/>
</g>
<g>
	<path class="st1" d="M122.9,121.2v-2.3h12.8v2.3h-5.2v21.1h-2.4v-21.1H122.9z"/>
	<path class="st1" d="M134.5,125h2.2v8.1c0,2,0.1,3.3,0.3,4.1c0.3,1.1,0.9,1.9,1.8,2.5c0.9,0.6,2,0.9,3.2,0.9s2.3-0.3,3.2-0.9
		c0.9-0.6,1.5-1.4,1.8-2.4c0.2-0.7,0.3-2.1,0.3-4.3V125h2.3v8.5c0,2.4-0.3,4.2-0.8,5.4c-0.6,1.2-1.4,2.2-2.5,2.8
		c-1.1,0.7-2.5,1-4.2,1c-1.7,0-3.1-0.3-4.2-1c-1.1-0.7-2-1.6-2.5-2.9c-0.6-1.2-0.8-3.1-0.8-5.5V125z"/>
	<path class="st1" d="M153,117.8c0.5,0,0.9,0.2,1.3,0.5s0.5,0.8,0.5,1.3c0,0.5-0.2,0.9-0.5,1.3s-0.8,0.5-1.3,0.5
		c-0.5,0-0.9-0.2-1.3-0.5s-0.5-0.8-0.5-1.3c0-0.5,0.2-0.9,0.5-1.3S152.5,117.8,153,117.8z M151.9,125h2.2v17.3h-2.2V125z"/>
	<path class="st1" d="M156.3,125h2.2v3.1c0.9-1.2,1.9-2.1,3-2.7s2.3-0.9,3.5-0.9c1.3,0,2.4,0.3,3.4,1s1.7,1.5,2.2,2.7
		c0.5,1.1,0.7,2.9,0.7,5.2v8.9h-2.2V134c0-2-0.1-3.3-0.2-4c-0.3-1.1-0.8-2-1.5-2.6s-1.7-0.9-2.9-0.9c-1.3,0-2.6,0.4-3.6,1.3
		c-1.1,0.9-1.8,2-2.1,3.3c-0.2,0.9-0.3,2.4-0.3,4.7v6.4h-2.2V125z"/>
	<path class="st1" d="M191,125v17.3h-2.2v-3c-0.9,1.1-2,2-3.1,2.6s-2.4,0.9-3.8,0.9c-2.5,0-4.5-0.9-6.3-2.7
		c-1.7-1.8-2.6-3.9-2.6-6.5c0-2.5,0.9-4.6,2.6-6.4c1.8-1.8,3.9-2.7,6.3-2.7c1.4,0,2.7,0.3,3.9,0.9c1.2,0.6,2.2,1.5,3,2.7V125H191z
		 M182.1,126.7c-1.2,0-2.4,0.3-3.4,0.9c-1,0.6-1.9,1.5-2.5,2.6c-0.6,1.1-0.9,2.3-0.9,3.5c0,1.2,0.3,2.4,0.9,3.5
		c0.6,1.1,1.5,2,2.5,2.6c1.1,0.6,2.2,0.9,3.4,0.9c1.2,0,2.4-0.3,3.5-0.9c1.1-0.6,1.9-1.4,2.5-2.5c0.6-1,0.9-2.2,0.9-3.5
		c0-2-0.7-3.7-2-5C185.6,127.4,184,126.7,182.1,126.7z"/>
	<path class="st1" d="M192.7,125h2.3v2.5c0.7-1,1.4-1.7,2.1-2.2c0.8-0.5,1.5-0.7,2.4-0.7c0.6,0,1.3,0.2,2,0.6l-1.2,1.9
		c-0.5-0.2-0.9-0.3-1.2-0.3c-0.7,0-1.5,0.3-2.1,0.9c-0.7,0.6-1.2,1.6-1.6,2.8c-0.3,1-0.4,3-0.4,6v5.9h-2.3V125z"/>
	<path class="st1" d="M217.5,128.6l-1.8,1.1c-1.5-2-3.6-3-6.3-3c-2.1,0-3.9,0.7-5.3,2s-2.1,3-2.1,4.9c0,1.3,0.3,2.5,1,3.6
		c0.6,1.1,1.5,2,2.6,2.6c1.1,0.6,2.4,0.9,3.8,0.9c2.5,0,4.6-1,6.2-3l1.8,1.2c-0.8,1.2-1.9,2.2-3.3,2.9s-3,1-4.8,1
		c-2.7,0-5-0.9-6.8-2.6c-1.8-1.7-2.7-3.9-2.7-6.4c0-1.7,0.4-3.2,1.3-4.7c0.8-1.4,2-2.6,3.5-3.4s3.1-1.2,5-1.2c1.1,0,2.3,0.2,3.3,0.5
		c1.1,0.4,2,0.8,2.7,1.4C216.4,127,217,127.7,217.5,128.6z"/>
	<path class="st1" d="M219.4,118.3h2.2v9.8c0.9-1.2,1.9-2.1,3-2.7c1.1-0.6,2.3-0.9,3.5-0.9c1.3,0,2.4,0.3,3.4,1s1.7,1.5,2.2,2.7
		c0.5,1.1,0.7,2.8,0.7,5.2v8.9h-2.2V134c0-2-0.1-3.3-0.2-4c-0.3-1.1-0.8-2-1.5-2.6s-1.7-0.9-2.9-0.9c-1.3,0-2.6,0.4-3.6,1.3
		c-1.1,0.9-1.8,2-2.1,3.3c-0.2,0.8-0.3,2.4-0.3,4.7v6.4h-2.2V118.3z"/>
	<path class="st1" d="M237.6,117.8c0.5,0,0.9,0.2,1.3,0.5s0.5,0.8,0.5,1.3c0,0.5-0.2,0.9-0.5,1.3s-0.8,0.5-1.3,0.5
		c-0.5,0-0.9-0.2-1.3-0.5s-0.5-0.8-0.5-1.3c0-0.5,0.2-0.9,0.5-1.3S237.1,117.8,237.6,117.8z M236.5,125h2.2v17.3h-2.2V125z"/>
	<path class="st1" d="M242.8,118.5h2.2v6.4h3.5v1.9h-3.5v15.4h-2.2v-15.4h-3V125h3V118.5z"/>
	<path class="st1" d="M264.1,136.6l1.9,1c-0.6,1.2-1.3,2.2-2.1,2.9c-0.8,0.7-1.7,1.3-2.7,1.7c-1,0.4-2.2,0.6-3.4,0.6
		c-2.8,0-5-0.9-6.6-2.8c-1.6-1.9-2.4-3.9-2.4-6.3c0-2.2,0.7-4.2,2-5.9c1.7-2.2,4-3.3,6.9-3.3c3,0,5.3,1.1,7.1,3.4
		c1.3,1.6,1.9,3.6,1.9,5.9h-15.6c0,2,0.7,3.7,1.9,4.9c1.2,1.3,2.8,1.9,4.6,1.9c0.9,0,1.7-0.2,2.6-0.5s1.5-0.7,2.1-1.2
		C262.8,138.5,263.4,137.7,264.1,136.6z M264.1,131.9c-0.3-1.2-0.7-2.1-1.3-2.9c-0.6-0.7-1.3-1.3-2.3-1.7c-0.9-0.4-1.9-0.7-2.9-0.7
		c-1.7,0-3.2,0.5-4.4,1.6c-0.9,0.8-1.6,2-2,3.6H264.1z"/>
	<path class="st1" d="M285.1,128.6l-1.8,1.1c-1.5-2-3.6-3-6.3-3c-2.1,0-3.9,0.7-5.3,2s-2.1,3-2.1,4.9c0,1.3,0.3,2.5,1,3.6
		c0.6,1.1,1.5,2,2.6,2.6c1.1,0.6,2.4,0.9,3.8,0.9c2.5,0,4.6-1,6.2-3l1.8,1.2c-0.8,1.2-1.9,2.2-3.3,2.9s-3,1-4.8,1
		c-2.7,0-5-0.9-6.8-2.6c-1.8-1.7-2.7-3.9-2.7-6.4c0-1.7,0.4-3.2,1.3-4.7c0.8-1.4,2-2.6,3.5-3.4s3.1-1.2,5-1.2c1.1,0,2.3,0.2,3.3,0.5
		c1.1,0.4,2,0.8,2.7,1.4C283.9,127,284.5,127.7,285.1,128.6z"/>
	<path class="st1" d="M288.8,118.5h2.2v6.4h3.5v1.9h-3.5v15.4h-2.2v-15.4h-3V125h3V118.5z"/>
	<path class="st1" d="M295.2,125h2.2v8.1c0,2,0.1,3.3,0.3,4.1c0.3,1.1,0.9,1.9,1.8,2.5c0.9,0.6,2,0.9,3.2,0.9s2.3-0.3,3.2-0.9
		c0.9-0.6,1.5-1.4,1.8-2.4c0.2-0.7,0.3-2.1,0.3-4.3V125h2.3v8.5c0,2.4-0.3,4.2-0.8,5.4c-0.6,1.2-1.4,2.2-2.5,2.8
		c-1.1,0.7-2.5,1-4.2,1c-1.7,0-3.1-0.3-4.2-1c-1.1-0.7-2-1.6-2.5-2.9c-0.6-1.2-0.8-3.1-0.8-5.5V125z"/>
	<path class="st1" d="M312.6,125h2.2v8.1c0,2,0.1,3.3,0.3,4.1c0.3,1.1,0.9,1.9,1.8,2.5c0.9,0.6,2,0.9,3.2,0.9s2.3-0.3,3.2-0.9
		c0.9-0.6,1.5-1.4,1.8-2.4c0.2-0.7,0.3-2.1,0.3-4.3V125h2.3v8.5c0,2.4-0.3,4.2-0.8,5.4c-0.6,1.2-1.4,2.2-2.5,2.8
		c-1.1,0.7-2.5,1-4.2,1c-1.7,0-3.1-0.3-4.2-1c-1.1-0.7-2-1.6-2.5-2.9c-0.6-1.2-0.8-3.1-0.8-5.5V125z"/>
	<path class="st1" d="M329.4,125h2.3v2.5c0.7-1,1.4-1.7,2.1-2.2c0.8-0.5,1.5-0.7,2.4-0.7c0.6,0,1.3,0.2,2,0.6L337,127
		c-0.5-0.2-0.9-0.3-1.2-0.3c-0.7,0-1.5,0.3-2.1,0.9c-0.7,0.6-1.2,1.6-1.6,2.8c-0.3,1-0.4,3-0.4,6v5.9h-2.3V125z"/>
	<path class="st1" d="M362.3,133.6l1.6,1.7c-1,0.9-2,1.7-2.9,2.3c0.6,0.6,1.5,1.4,2.5,2.4c0.8,0.8,1.5,1.5,2.1,2.2h-3.3l-3.1-3.2
		c-2,1.6-3.5,2.6-4.8,3.1c-1.2,0.5-2.5,0.7-3.9,0.7c-1.8,0-3.3-0.5-4.3-1.6c-1.1-1-1.6-2.3-1.6-3.9c0-1.2,0.4-2.3,1.1-3.5
		c0.7-1.2,2.2-2.7,4.5-4.5c-1.3-1.5-2.1-2.7-2.5-3.4c-0.4-0.7-0.5-1.4-0.5-2.1c0-1.2,0.5-2.1,1.4-2.9c1-0.9,2.3-1.3,3.9-1.3
		c1,0,1.9,0.2,2.7,0.6c0.8,0.4,1.4,0.9,1.8,1.6c0.4,0.7,0.6,1.4,0.6,2.1c0,0.8-0.3,1.6-0.8,2.5c-0.6,0.9-1.6,2-3.3,3.4l3.6,3.7
		l2.3,2.4C360.6,135.1,361.6,134.3,362.3,133.6z M351.7,131.3c-2,1.5-3.3,2.7-3.9,3.6s-0.9,1.7-0.9,2.5c0,0.9,0.4,1.7,1.1,2.4
		c0.8,0.7,1.7,1,2.8,1c0.8,0,1.6-0.2,2.4-0.5c1.3-0.5,2.7-1.5,4.3-2.8l-3.7-3.8C353.2,132.9,352.5,132.2,351.7,131.3z M352,128.2
		c1.1-0.9,2-1.7,2.6-2.6c0.4-0.6,0.6-1.1,0.6-1.6c0-0.5-0.3-1-0.8-1.4c-0.5-0.4-1.2-0.6-2.1-0.6c-0.8,0-1.5,0.2-2,0.6
		c-0.5,0.4-0.8,0.9-0.8,1.4c0,0.4,0.1,0.8,0.3,1.2C350.3,126.1,351.1,127.1,352,128.2z"/>
	<path class="st1" d="M373.5,118.9h4.7c2.6,0,4.4,0.1,5.3,0.3c1.4,0.3,2.5,1,3.4,2c0.9,1,1.3,2.3,1.3,3.9c0,1.3-0.3,2.4-0.9,3.4
		s-1.5,1.7-2.6,2.2c-1.1,0.5-2.7,0.7-4.6,0.8l8.4,10.9h-2.9l-8.4-10.9h-1.3v10.9h-2.3V118.9z M375.9,121.2v8l4,0
		c1.6,0,2.7-0.1,3.5-0.4s1.3-0.8,1.8-1.4s0.6-1.4,0.6-2.2c0-0.8-0.2-1.5-0.6-2.1c-0.4-0.6-1-1.1-1.7-1.4c-0.7-0.3-1.8-0.4-3.4-0.4
		H375.9z"/>
	<path class="st1" d="M405,136.6l1.9,1c-0.6,1.2-1.3,2.2-2.1,2.9c-0.8,0.7-1.7,1.3-2.7,1.7c-1,0.4-2.2,0.6-3.4,0.6
		c-2.8,0-5-0.9-6.6-2.8s-2.4-3.9-2.4-6.3c0-2.2,0.7-4.2,2-5.9c1.7-2.2,4-3.3,6.9-3.3c3,0,5.3,1.1,7.1,3.4c1.3,1.6,1.9,3.6,1.9,5.9
		h-15.6c0,2,0.7,3.7,1.9,4.9c1.2,1.3,2.8,1.9,4.6,1.9c0.9,0,1.7-0.2,2.6-0.5c0.8-0.3,1.5-0.7,2.1-1.2
		C403.7,138.5,404.3,137.7,405,136.6z M405,131.9c-0.3-1.2-0.7-2.1-1.3-2.9c-0.6-0.7-1.3-1.3-2.3-1.7c-0.9-0.4-1.9-0.7-2.9-0.7
		c-1.7,0-3.2,0.5-4.4,1.6c-0.9,0.8-1.6,2-2,3.6H405z"/>
	<path class="st1" d="M426.4,125v17.3h-2.2v-3c-0.9,1.1-2,2-3.1,2.6c-1.2,0.6-2.4,0.9-3.8,0.9c-2.5,0-4.5-0.9-6.3-2.7
		c-1.7-1.8-2.6-3.9-2.6-6.5c0-2.5,0.9-4.6,2.6-6.4c1.8-1.8,3.9-2.7,6.3-2.7c1.4,0,2.7,0.3,3.9,0.9c1.2,0.6,2.2,1.5,3,2.7V125H426.4z
		 M417.5,126.7c-1.2,0-2.4,0.3-3.4,0.9c-1.1,0.6-1.9,1.5-2.5,2.6c-0.6,1.1-0.9,2.3-0.9,3.5c0,1.2,0.3,2.4,0.9,3.5
		c0.6,1.1,1.5,2,2.5,2.6c1.1,0.6,2.2,0.9,3.4,0.9c1.2,0,2.4-0.3,3.5-0.9c1.1-0.6,1.9-1.4,2.5-2.5s0.9-2.2,0.9-3.5c0-2-0.7-3.7-2-5
		C421,127.4,419.4,126.7,417.5,126.7z"/>
	<path class="st1" d="M428.6,118.3h2.2v24h-2.2V118.3z"/>
	<path class="st1" d="M433.8,117.8c0.5,0,0.9,0.2,1.3,0.5s0.5,0.8,0.5,1.3c0,0.5-0.2,0.9-0.5,1.3s-0.8,0.5-1.3,0.5
		c-0.5,0-0.9-0.2-1.3-0.5c-0.4-0.4-0.5-0.8-0.5-1.3c0-0.5,0.2-0.9,0.5-1.3C432.9,118,433.3,117.8,433.8,117.8z M432.7,125h2.2v17.3
		h-2.2V125z"/>
	<path class="st1" d="M445.8,126.9l-1.4,1.5c-1.2-1.2-2.4-1.7-3.5-1.7c-0.7,0-1.3,0.2-1.9,0.7c-0.5,0.5-0.8,1-0.8,1.7
		c0,0.6,0.2,1.1,0.6,1.6c0.4,0.5,1.3,1.1,2.7,1.8c1.7,0.9,2.8,1.7,3.4,2.5c0.6,0.8,0.9,1.7,0.9,2.7c0,1.4-0.5,2.6-1.5,3.6
		c-1,1-2.2,1.5-3.7,1.5c-1,0-2-0.2-2.9-0.7s-1.7-1-2.3-1.8l1.4-1.6c1.1,1.3,2.3,1.9,3.6,1.9c0.9,0,1.7-0.3,2.3-0.9s0.9-1.2,0.9-2
		c0-0.6-0.2-1.2-0.6-1.7c-0.4-0.5-1.4-1.1-2.8-1.8c-1.6-0.8-2.6-1.6-3.2-2.4c-0.6-0.8-0.8-1.7-0.8-2.7c0-1.3,0.4-2.4,1.3-3.3
		c0.9-0.9,2-1.3,3.4-1.3C442.6,124.5,444.2,125.3,445.8,126.9z"/>
	<path class="st1" d="M464.6,125v17.3h-2.2v-3c-0.9,1.1-2,2-3.1,2.6c-1.2,0.6-2.4,0.9-3.8,0.9c-2.5,0-4.5-0.9-6.3-2.7
		c-1.7-1.8-2.6-3.9-2.6-6.5c0-2.5,0.9-4.6,2.6-6.4c1.8-1.8,3.9-2.7,6.3-2.7c1.4,0,2.7,0.3,3.9,0.9c1.2,0.6,2.2,1.5,3,2.7V125H464.6z
		 M455.7,126.7c-1.2,0-2.4,0.3-3.4,0.9c-1.1,0.6-1.9,1.5-2.5,2.6c-0.6,1.1-0.9,2.3-0.9,3.5c0,1.2,0.3,2.4,0.9,3.5
		c0.6,1.1,1.5,2,2.5,2.6c1.1,0.6,2.2,0.9,3.4,0.9c1.2,0,2.4-0.3,3.5-0.9c1.1-0.6,1.9-1.4,2.5-2.5s0.9-2.2,0.9-3.5c0-2-0.7-3.7-2-5
		C459.2,127.4,457.6,126.7,455.7,126.7z"/>
	<path class="st1" d="M469.1,118.5h2.2v6.4h3.5v1.9h-3.5v15.4h-2.2v-15.4h-3V125h3V118.5z"/>
	<path class="st1" d="M476.6,117.8c0.5,0,0.9,0.2,1.3,0.5s0.5,0.8,0.5,1.3c0,0.5-0.2,0.9-0.5,1.3s-0.8,0.5-1.3,0.5
		c-0.5,0-0.9-0.2-1.3-0.5c-0.4-0.4-0.5-0.8-0.5-1.3c0-0.5,0.2-0.9,0.5-1.3C475.6,118,476.1,117.8,476.6,117.8z M475.4,125h2.2v17.3
		h-2.2V125z"/>
	<path class="st1" d="M494.5,136.6l1.9,1c-0.6,1.2-1.3,2.2-2.1,2.9c-0.8,0.7-1.7,1.3-2.7,1.7c-1,0.4-2.2,0.6-3.4,0.6
		c-2.8,0-5-0.9-6.6-2.8s-2.4-3.9-2.4-6.3c0-2.2,0.7-4.2,2-5.9c1.7-2.2,4-3.3,6.9-3.3c3,0,5.3,1.1,7.1,3.4c1.3,1.6,1.9,3.6,1.9,5.9
		h-15.6c0,2,0.7,3.7,1.9,4.9c1.2,1.3,2.8,1.9,4.6,1.9c0.9,0,1.7-0.2,2.6-0.5c0.8-0.3,1.5-0.7,2.1-1.2
		C493.1,138.5,493.8,137.7,494.5,136.6z M494.5,131.9c-0.3-1.2-0.7-2.1-1.3-2.9c-0.6-0.7-1.3-1.3-2.3-1.7c-0.9-0.4-1.9-0.7-2.9-0.7
		c-1.7,0-3.2,0.5-4.4,1.6c-0.9,0.8-1.6,2-2,3.6H494.5z"/>
	<path class="st1" d="M507.3,126.9l-1.4,1.5c-1.2-1.2-2.4-1.7-3.5-1.7c-0.7,0-1.3,0.2-1.9,0.7c-0.5,0.5-0.8,1-0.8,1.7
		c0,0.6,0.2,1.1,0.6,1.6c0.4,0.5,1.3,1.1,2.7,1.8c1.7,0.9,2.8,1.7,3.4,2.5c0.6,0.8,0.9,1.7,0.9,2.7c0,1.4-0.5,2.6-1.5,3.6
		c-1,1-2.2,1.5-3.7,1.5c-1,0-2-0.2-2.9-0.7s-1.7-1-2.3-1.8l1.4-1.6c1.1,1.3,2.3,1.9,3.6,1.9c0.9,0,1.7-0.3,2.3-0.9s0.9-1.2,0.9-2
		c0-0.6-0.2-1.2-0.6-1.7c-0.4-0.5-1.4-1.1-2.8-1.8c-1.6-0.8-2.6-1.6-3.2-2.4c-0.6-0.8-0.8-1.7-0.8-2.7c0-1.3,0.4-2.4,1.3-3.3
		c0.9-0.9,2-1.3,3.4-1.3C504.1,124.5,505.7,125.3,507.3,126.9z"/>
</g>
</svg>
